<?xml version="1.0" standalone="no"?>
<!DOCTYPE svg PUBLIC "-//W3C//DTD SVG 20010904//EN"
 "http://www.w3.org/TR/2001/REC-SVG-20010904/DTD/svg10.dtd">
<svg version="1.0" xmlns="http://www.w3.org/2000/svg"
 width="517.000000pt" height="193.000000pt" viewBox="0 0 517.000000 193.000000"
 preserveAspectRatio="xMidYMid meet">
<metadata>
Created by potrace 1.15, written by Peter Selinger 2001-2017
</metadata>
<g transform="translate(0.000000,193.000000) scale(0.100000,-0.100000)"
fill="#000000" stroke="none">
<path d="M462 1770 c-173 -62 -243 -159 -212 -291 12 -50 13 -51 44 -45 54 11
63 28 42 86 -14 40 -16 56 -7 83 33 99 184 153 314 112 88 -28 147 -100 147
-181 0 -47 -32 -123 -70 -167 -40 -45 -118 -86 -139 -72 -7 4 -11 64 -11 171
0 90 -4 164 -8 164 -14 0 -70 -64 -81 -93 -6 -16 -11 -88 -11 -160 0 -73 -4
-147 -10 -166 -7 -24 -5 -49 5 -89 9 -34 15 -109 16 -187 1 -71 4 -161 8 -199
l6 -69 31 26 c61 51 66 75 58 279 -8 213 -12 204 91 217 179 21 260 -37 260
-189 -1 -183 -92 -261 -465 -395 -272 -99 -338 -137 -390 -227 -25 -43 -30
-63 -28 -103 5 -92 57 -55 78 56 18 96 65 125 371 234 292 103 422 176 501
280 98 129 87 284 -26 383 -32 28 -130 72 -161 72 -7 0 -26 5 -41 10 l-26 10
46 50 c61 65 86 120 86 190 0 100 -45 161 -150 209 -61 28 -193 28 -268 1z"/>
<path d="M3677 1389 c-55 -41 -62 -69 -62 -244 0 -148 -2 -164 -23 -208 -26
-51 -81 -96 -144 -116 -32 -11 -43 -10 -82 7 -84 38 -97 104 -38 187 38 52
126 114 173 121 56 9 68 20 46 41 -24 24 -92 21 -146 -7 -59 -29 -111 -85
-156 -165 -51 -92 -105 -148 -166 -174 -49 -22 -63 -22 -121 1 -42 16 -34 33
30 69 84 48 155 124 171 181 24 86 -8 126 -88 112 -91 -16 -173 -87 -237 -205
-17 -31 -36 -52 -51 -55 -28 -7 -29 -14 -4 -45 10 -13 22 -40 26 -59 16 -79
69 -120 155 -120 30 0 70 4 89 10 45 13 105 55 121 85 18 34 25 32 47 -12 26
-54 74 -83 136 -83 67 0 124 29 202 102 l63 58 7 -62 c9 -79 19 -98 52 -98 38
0 86 34 129 90 21 28 42 49 46 48 4 -2 27 -32 50 -68 51 -76 81 -88 123 -46
33 33 32 46 -10 97 -51 60 -56 71 -65 162 -6 64 -12 85 -29 98 -46 38 -95 -10
-138 -133 l-28 -83 -10 265 c-11 290 -11 291 -68 249z"/>
<path d="M1712 1210 c-12 -5 -39 -21 -59 -35 -22 -14 -52 -25 -71 -25 -47 0
-92 -46 -92 -93 0 -36 -37 -95 -50 -80 -5 4 -10 52 -12 105 -2 58 -8 102 -15
109 -23 23 -76 -13 -194 -131 -123 -122 -179 -209 -179 -276 0 -31 21 -64 41
-64 29 0 81 35 139 94 35 36 68 66 72 66 4 0 12 -19 18 -42 18 -69 32 -98 53
-109 28 -15 50 10 91 105 48 109 56 114 49 29 -8 -92 0 -123 31 -123 27 0 71
31 88 63 7 13 12 69 12 141 l1 118 39 34 c38 33 79 44 90 25 3 -5 -5 -16 -18
-24 -55 -37 -56 -39 -56 -187 0 -76 3 -145 6 -154 11 -29 50 -18 88 24 35 39
36 42 36 123 0 71 3 87 24 118 33 48 85 73 120 58 35 -16 41 -43 19 -81 -18
-31 -31 -41 -66 -52 -17 -5 -16 -9 6 -48 14 -24 27 -55 31 -69 3 -15 24 -43
46 -63 34 -31 47 -36 88 -36 68 1 124 30 199 105 36 36 67 64 68 63 2 -2 8
-36 14 -77 5 -40 14 -78 20 -84 31 -31 105 9 164 88 17 24 36 44 40 45 4 0 16
-14 25 -31 43 -78 72 -109 101 -109 30 0 71 38 71 65 0 7 -18 34 -39 60 -42
51 -61 107 -61 177 0 56 -22 88 -60 88 -36 0 -62 -32 -90 -108 -46 -128 -46
-128 -54 -12 -4 57 -12 112 -17 122 -27 50 -109 -11 -109 -81 0 -33 -8 -45
-67 -103 -98 -94 -159 -121 -213 -93 -17 9 -30 20 -30 25 0 6 30 30 68 54 106
68 162 133 162 189 0 33 -40 77 -71 77 -30 0 -82 -27 -110 -56 -28 -30 -33
-30 -47 1 -23 50 -71 50 -184 0 -15 -6 -18 -2 -18 22 0 17 -8 37 -18 46 -20
18 -82 22 -120 7z"/>
<path d="M4261 1205 c-53 -24 -115 -79 -163 -144 -23 -33 -52 -61 -62 -63 -33
-5 -42 -32 -18 -56 12 -12 22 -31 22 -42 0 -68 86 -170 186 -221 59 -30 78
-34 165 -37 115 -5 173 10 338 89 265 126 396 258 361 365 -19 56 -81 73 -120
32 -27 -29 -25 -70 5 -106 34 -41 32 -55 -17 -95 -208 -169 -520 -246 -660
-164 -41 24 -138 120 -138 136 0 3 28 22 62 41 34 19 90 62 125 95 55 52 63
65 63 97 0 19 -8 46 -18 58 -23 28 -86 35 -131 15z"/>
</g>
</svg>
